<svg version="1.1" xmlns="http://www.w3.org/2000/svg" xmlns:xlink="http://www.w3.org/1999/xlink" width="500" height="500"><g data-paper-data="{&quot;description&quot;:&quot;Logo for NuBB\n=============\n\nThis logo was generated by MarkMaker at http://emblemmatic.org/markmaker/ and may be composed of elements designed by others.\n\nThe font is Sniglet ExtraBold designed by Multiple Designers and released under the OFL license via Google Fonts: https://www.google.com/fonts/specimen/Sniglet. The font includes this copyright statement: Copyright (c) 2008, Haley Fiege (haley@kingdomofawesome.com), Copyright (c) 2012, Brenda Gallo (gbrenda1987@gmail.com) Copyright (c) 2013, Pablo Impallari (www.impallari.com|impallari@gmail.com), with no Reserved Font Name.\n\nMarkMaker uses semantic data from the Princeton University WordNet database http://wordnet.princeton.edu and font descriptions from Google Fonts https://www.google.com/fonts.&quot;}" fill="#042626" fill-rule="nonzero" stroke="none" stroke-width="1" stroke-linecap="butt" stroke-linejoin="miter" stroke-miterlimit="10" stroke-dasharray="" stroke-dashoffset="0" font-family="none" font-weight="none" font-size="none" text-anchor="none" style="mix-blend-mode: normal"><g data-paper-data="{&quot;elementType&quot;:&quot;logo&quot;}"><g data-paper-data="{&quot;elementType&quot;:&quot;text&quot;}"><g data-paper-data="{&quot;baseline&quot;:71.58947368421053,&quot;elementType&quot;:&quot;row&quot;}"><g data-paper-data="{&quot;baselineProportion&quot;:0.9766139454735675,&quot;fontSize&quot;:100,&quot;baseline&quot;:71.58947368421053,&quot;elementType&quot;:&quot;word&quot;}"><path d="M52.94279,223.30088c0.87845,-3.77731 2.3718,-7.20325 4.48007,-10.27781c1.75689,-2.63534 4.2385,-5.07302 7.44482,-7.31306c3.20632,-2.24004 7.4009,-3.49182 12.58373,-3.75535c4.48007,-0.17569 8.34523,0.43922 11.59548,1.84473c3.25025,1.40551 5.97343,3.25025 8.16954,5.5342c2.19611,2.28396 3.93104,4.80949 5.20479,7.57659c1.27375,2.7671 2.262,5.46832 2.96475,8.10366c0.70276,2.63534 1.16394,4.96322 1.38355,6.98364c0.21961,2.02042 0.37334,3.42594 0.46118,4.21654c0,-4.39223 0.28549,-8.23542 0.85648,-11.52959c0.57099,-3.29417 1.33963,-6.14912 2.30592,-8.56484c0.96629,-2.41572 2.08631,-4.41419 3.36005,-5.99539c1.27375,-1.5812 2.56945,-2.85495 3.88712,-3.82124c3.07456,-2.28396 6.58834,-3.42594 10.54134,-3.42594c4.12869,-0.08784 7.44482,0.63687 9.94839,2.17415c2.50357,1.53728 4.41419,3.27221 5.73185,5.20479c1.5812,2.28396 2.63534,4.83145 3.1624,7.64247c1.49336,7.73032 2.24004,15.0873 2.24004,22.07093c0,6.98364 -0.21961,13.19864 -0.65883,18.645c-0.61491,6.32481 -1.49336,12.29823 -2.63534,17.92028c-0.61491,2.81102 -1.38355,5.24871 -2.30592,7.31306c-0.92237,2.06435 -1.93258,3.82124 -3.03064,5.27067c-1.09806,1.44943 -2.262,2.63534 -3.49182,3.5577c-1.22982,0.92237 -2.41572,1.64708 -3.5577,2.17415c-2.81102,1.22982 -5.70989,1.71297 -8.69661,1.44943c-4.56791,0.08784 -8.52092,-0.72472 -11.85901,-2.43769c-3.33809,-1.71297 -6.19304,-3.88712 -8.56484,-6.52246c-2.3718,-2.63534 -4.32634,-5.55617 -5.86362,-8.76249c-1.53728,-3.20632 -2.7671,-6.25892 -3.68947,-9.15779c-0.92237,-2.89887 -1.55924,-5.44636 -1.91062,-7.64247c-0.35138,-2.19611 -0.57099,-3.64555 -0.65883,-4.3483c0.26353,5.35852 0.15373,10.01427 -0.32942,13.96728c-0.48314,3.953 -1.20786,7.33502 -2.17415,10.14604c-0.96629,2.81102 -2.08631,5.1389 -3.36005,6.98364c-1.27375,1.84473 -2.61337,3.29417 -4.01889,4.3483c-3.25025,2.54749 -7.02756,3.68947 -11.33194,3.42594c-3.77731,0.17569 -6.85187,-0.50511 -9.22367,-2.04238c-2.3718,-1.53728 -4.21654,-3.22829 -5.5342,-5.07302c-1.5812,-2.19611 -2.72318,-4.69968 -3.42594,-7.51071c-1.66905,-6.93972 -2.61337,-13.85747 -2.83299,-20.75327c-0.21961,-6.89579 -0.10981,-13.15472 0.32942,-18.77677c0.43922,-6.50049 1.27375,-12.78138 2.50357,-18.84265z" data-paper-data="{&quot;elementType&quot;:&quot;letter&quot;,&quot;baseline&quot;:71.42222222222223,&quot;baselineProportion&quot;:0.996471006629401,&quot;fontSize&quot;:100}"></path><path d="M192.61557,228.30802c2.54749,0.35138 4.83145,1.1859 6.85187,2.50357c1.75689,1.14198 3.36005,2.85495 4.80949,5.1389c1.44943,2.28396 2.262,5.44636 2.43769,9.48721c0,1.49336 0.02196,3.1624 0.06588,5.00714c0.04392,1.84473 0.17569,3.5577 0.3953,5.1389c0.21961,1.5812 0.61491,2.92083 1.1859,4.01889c0.57099,1.09806 1.42747,1.64708 2.56945,1.64708c2.02042,0 3.18436,-1.25178 3.49182,-3.75535c0.30746,-2.50357 0.50511,-6.52246 0.59295,-12.05666c0,-4.30438 0.7906,-7.64247 2.3718,-10.01427c1.5812,-2.3718 3.29417,-4.08477 5.1389,-5.1389c2.19611,-1.22982 4.69968,-1.93258 7.51071,-2.10827c4.39223,-0.17569 7.84012,0.46118 10.34369,1.91062c2.50357,1.44943 4.45811,3.09652 5.86362,4.94125c1.5812,2.19611 2.67926,4.69968 3.29417,7.51071c0.96629,4.65576 1.29571,9.09191 0.98825,13.30844c-0.30746,4.21654 -0.81256,7.99385 -1.51532,11.33194c-0.87845,3.86516 -2.02042,7.51071 -3.42594,10.93664c-1.66905,3.86516 -3.99693,7.29109 -6.98364,10.27781c-1.31767,1.31767 -2.81102,2.59141 -4.48007,3.82124c-1.66905,1.22982 -3.60163,2.30592 -5.79774,3.22829c-2.19611,0.92237 -4.61184,1.64708 -7.24717,2.17415c-2.63534,0.52707 -5.57813,0.74668 -8.82837,0.65883c-6.85187,-0.17569 -12.49588,-0.98825 -16.93203,-2.43769c-4.43615,-1.44943 -7.97189,-3.00867 -10.60723,-4.67772c-3.07456,-1.93258 -5.40244,-4.12869 -6.98364,-6.58834c-2.72318,-3.953 -4.52399,-8.34523 -5.40244,-13.17668c-0.87845,-4.83145 -1.27375,-9.35544 -1.1859,-13.57198c0,-4.91929 0.48314,-9.88251 1.44943,-14.88965c0.96629,-4.30438 2.54749,-7.51071 4.7436,-9.61897c2.19611,-2.10827 4.43615,-3.51378 6.72011,-4.21654c2.63534,-0.87845 5.49028,-1.14198 8.56484,-0.7906z" data-paper-data="{&quot;elementType&quot;:&quot;letter&quot;,&quot;baseline&quot;:51.521621621621634,&quot;baselineProportion&quot;:0.9677983188401591,&quot;fontSize&quot;:100}"></path><path d="M315.8175,201.95466c6.23696,0.26353 11.26606,1.33963 15.0873,3.22829c3.82124,1.88866 6.82991,3.93104 9.02602,6.12715c2.54749,2.54749 4.39223,5.44636 5.5342,8.69661c1.31767,4.83145 1.49336,8.89426 0.52707,12.18843c-0.96629,3.29417 -2.32788,5.99539 -4.08477,8.10366c-2.02042,2.45965 -4.52399,4.48007 -7.51071,6.06127c4.04085,1.22982 7.15933,2.94279 9.35544,5.1389c2.19611,2.19611 3.77731,4.3483 4.7436,6.45657c1.14198,2.45965 1.80081,5.09498 1.9765,7.90601c0.17569,3.60163 -0.17569,6.80795 -1.05413,9.61897c-0.87845,2.81102 -2.10827,5.24871 -3.68947,7.31306c-1.5812,2.06435 -3.42594,3.8432 -5.5342,5.33655c-2.10827,1.49336 -4.26046,2.72318 -6.45657,3.68947c-5.27067,2.28396 -11.28802,3.68947 -18.05205,4.21654c-3.68947,0.26353 -7.07148,0.21961 -10.14604,-0.13177c-3.07456,-0.35138 -5.84166,-0.87845 -8.30131,-1.5812c-2.45965,-0.70276 -4.65576,-1.51532 -6.58834,-2.43769c-1.93258,-0.92237 -3.60163,-1.91062 -5.00714,-2.96475c-3.42594,-2.3718 -6.01735,-5.1389 -7.77424,-8.30131c-2.63534,-4.48007 -4.3483,-9.31152 -5.1389,-14.49435c-0.7906,-5.18283 -1.1859,-10.01427 -1.1859,-14.49435c0,-4.56791 0.26353,-8.69661 0.7906,-12.38608c0.52707,-3.68947 1.14198,-6.80795 1.84473,-9.35544c0.7906,-2.98671 1.66905,-5.66597 2.63534,-8.03777c1.14198,-2.98671 2.59141,-5.55617 4.3483,-7.70836c1.75689,-2.15219 3.66751,-3.99693 5.73185,-5.5342c2.06435,-1.53728 4.21654,-2.74514 6.45657,-3.62359c2.24004,-0.87845 4.41419,-1.5812 6.52246,-2.10827c5.00714,-1.14198 10.32173,-1.44943 15.94378,-0.92237M311.20567,228.30802c-1.49336,0 -2.74514,0.46118 -3.75535,1.38355c-1.01021,0.92237 -1.51532,2.13023 -1.51532,3.62359c0,1.40551 0.37334,2.70122 1.12002,3.88712c0.74668,1.1859 2.13023,1.77885 4.15065,1.77885c1.75689,0 3.07456,-0.59295 3.953,-1.77885c0.87845,-1.1859 1.31767,-2.48161 1.31767,-3.88712c0,-1.31767 -0.43922,-2.48161 -1.31767,-3.49182c-0.87845,-1.01021 -2.19611,-1.51532 -3.953,-1.51532M312.39157,259.93204c-1.49336,0 -2.78906,0.57099 -3.88712,1.71297c-1.09806,1.14198 -1.55924,2.41572 -1.38355,3.82124c0.17569,1.84473 0.72472,3.11848 1.64708,3.82124c0.92237,0.70276 2.13023,1.05413 3.62359,1.05413c1.49336,0 2.72318,-0.43922 3.68947,-1.31767c0.96629,-0.87845 1.44943,-2.06435 1.44943,-3.5577c0,-1.40551 -0.43922,-2.67926 -1.31767,-3.82124c-0.87845,-1.14198 -2.15219,-1.71297 -3.82124,-1.71297z" data-paper-data="{&quot;elementType&quot;:&quot;letter&quot;,&quot;baseline&quot;:71.58947368421053,&quot;baselineProportion&quot;:0.9982072652932851,&quot;fontSize&quot;:100}"></path><path d="M415.30142,201.95466c6.23696,0.26353 11.26606,1.33963 15.0873,3.22829c3.82124,1.88866 6.82991,3.93104 9.02602,6.12715c2.54749,2.54749 4.39223,5.44636 5.5342,8.69661c1.31767,4.83145 1.49336,8.89426 0.52707,12.18843c-0.96629,3.29417 -2.32788,5.99539 -4.08477,8.10366c-2.02042,2.45965 -4.52399,4.48007 -7.51071,6.06127c4.04085,1.22982 7.15933,2.94279 9.35544,5.1389c2.19611,2.19611 3.77731,4.3483 4.7436,6.45657c1.14198,2.45965 1.80081,5.09498 1.9765,7.90601c0.17569,3.60163 -0.17569,6.80795 -1.05413,9.61897c-0.87845,2.81102 -2.10827,5.24871 -3.68947,7.31306c-1.5812,2.06435 -3.42594,3.8432 -5.5342,5.33655c-2.10827,1.49336 -4.26046,2.72318 -6.45657,3.68947c-5.27067,2.28396 -11.28802,3.68947 -18.05205,4.21654c-3.68947,0.26353 -7.07148,0.21961 -10.14604,-0.13177c-3.07456,-0.35138 -5.84166,-0.87845 -8.30131,-1.5812c-2.45965,-0.70276 -4.65576,-1.51532 -6.58834,-2.43769c-1.93258,-0.92237 -3.60163,-1.91062 -5.00714,-2.96475c-3.42594,-2.3718 -6.01735,-5.1389 -7.77424,-8.30131c-2.63534,-4.48007 -4.3483,-9.31152 -5.1389,-14.49435c-0.7906,-5.18283 -1.1859,-10.01427 -1.1859,-14.49435c0,-4.56791 0.26353,-8.69661 0.7906,-12.38608c0.52707,-3.68947 1.14198,-6.80795 1.84473,-9.35544c0.7906,-2.98671 1.66905,-5.66597 2.63534,-8.03777c1.14198,-2.98671 2.59141,-5.55617 4.3483,-7.70836c1.75689,-2.15219 3.66751,-3.99693 5.73185,-5.5342c2.06435,-1.53728 4.21654,-2.74514 6.45657,-3.62359c2.24004,-0.87845 4.41419,-1.5812 6.52246,-2.10827c5.00714,-1.14198 10.32173,-1.44943 15.94378,-0.92237M410.68958,228.30802c-1.49336,0 -2.74514,0.46118 -3.75535,1.38355c-1.01021,0.92237 -1.51532,2.13023 -1.51532,3.62359c0,1.40551 0.37334,2.70122 1.12002,3.88712c0.74668,1.1859 2.13023,1.77885 4.15065,1.77885c1.75689,0 3.07456,-0.59295 3.953,-1.77885c0.87845,-1.1859 1.31767,-2.48161 1.31767,-3.88712c0,-1.31767 -0.43922,-2.48161 -1.31767,-3.49182c-0.87845,-1.01021 -2.19611,-1.51532 -3.953,-1.51532M411.87548,259.93204c-1.49336,0 -2.78906,0.57099 -3.88712,1.71297c-1.09806,1.14198 -1.55924,2.41572 -1.38355,3.82124c0.17569,1.84473 0.72472,3.11848 1.64708,3.82124c0.92237,0.70276 2.13023,1.05413 3.62359,1.05413c1.49336,0 2.72318,-0.43922 3.68947,-1.31767c0.96629,-0.87845 1.44943,-2.06435 1.44943,-3.5577c0,-1.40551 -0.43922,-2.67926 -1.31767,-3.82124c-0.87845,-1.14198 -2.15219,-1.71297 -3.82124,-1.71297z" data-paper-data="{&quot;elementType&quot;:&quot;letter&quot;,&quot;baseline&quot;:71.58947368421053,&quot;baselineProportion&quot;:0.9982072652932851,&quot;fontSize&quot;:100}"></path></g></g></g></g></g></svg>